<svg width="51" height="15" viewBox="0 0 51 15" fill="none" xmlns="http://www.w3.org/2000/svg">
<path d="M0.815696 14H5.54581C8.63956 14 9.91797 12.4915 9.91797 10.5227C9.91797 8.4517 8.48615 7.3267 7.28445 7.25V7.12216C8.40945 6.81534 9.40661 6.07386 9.40661 4.38636C9.40661 2.46875 8.1282 0.909091 5.3924 0.909091H0.815696V14ZM2.40092 12.5938V8.04261H5.62251C7.33558 8.04261 8.40945 9.19318 8.40945 10.5227C8.40945 11.6733 7.61683 12.5938 5.54581 12.5938H2.40092ZM2.40092 6.66193V2.31534H5.3924C7.13104 2.31534 7.89808 3.2358 7.89808 4.38636C7.89808 5.76705 6.77308 6.66193 5.34126 6.66193H2.40092ZM16.3068 14.2045C18.9659 14.2045 20.7557 12.1847 20.7557 9.14205C20.7557 6.07386 18.9659 4.05398 16.3068 4.05398C13.6477 4.05398 11.858 6.07386 11.858 9.14205C11.858 12.1847 13.6477 14.2045 16.3068 14.2045ZM16.3068 12.8494C14.2869 12.8494 13.3665 11.1108 13.3665 9.14205C13.3665 7.1733 14.2869 5.40909 16.3068 5.40909C18.3267 5.40909 19.2472 7.1733 19.2472 9.14205C19.2472 11.1108 18.3267 12.8494 16.3068 12.8494ZM24.5669 11.7756V4.18182H23.0584V14H24.8226L29.5272 6.40625V14H31.0357V4.18182H29.2971L24.5669 11.7756ZM28.2999 0.909091C28.2999 1.57386 27.9419 2.16193 27.0471 2.16193C26.1522 2.16193 25.8198 1.57386 25.8198 0.909091H24.4135C24.4135 2.28977 25.4363 3.26136 27.0471 3.26136C28.6834 3.26136 29.7061 2.28977 29.7061 0.909091H28.2999ZM32.4627 5.58807H35.7099V14H37.2184V5.58807H40.44V4.18182H32.4627V5.58807ZM44.149 11.7756V4.18182H42.6404V14H44.4047L49.1092 6.40625V14H50.6177V4.18182H48.8791L44.149 11.7756Z" fill="white"/>
</svg>
